<svg width="15" height="15" viewBox="0 0 15 15" fill="none" xmlns="http://www.w3.org/2000/svg">
<g clip-path="url(#clip0_189_106)">
<path d="M4.52679 0.518555C4.70759 0.199219 5.07924 0 5.48437 0H9.51563C9.92076 0 10.2924 0.199219 10.4732 0.518555L10.7143 0.9375H13.9286C14.5212 0.9375 15 1.35645 15 1.875C15 2.39355 14.5212 2.8125 13.9286 2.8125H1.07143C0.478795 2.8125 0 2.39355 0 1.875C0 1.35645 0.478795 0.9375 1.07143 0.9375H4.28571L4.52679 0.518555ZM1.07143 3.75H13.9286V13.125C13.9286 14.1592 12.9676 15 11.7857 15H3.21429C2.03237 15 1.07143 14.1592 1.07143 13.125V3.75ZM4.28571 5.625C3.99107 5.625 3.75 5.83594 3.75 6.09375V12.6562C3.75 12.9141 3.99107 13.125 4.28571 13.125C4.58036 13.125 4.82143 12.9141 4.82143 12.6562V6.09375C4.82143 5.83594 4.58036 5.625 4.28571 5.625ZM7.5 5.625C7.20536 5.625 6.96429 5.83594 6.96429 6.09375V12.6562C6.96429 12.9141 7.20536 13.125 7.5 13.125C7.79464 13.125 8.03571 12.9141 8.03571 12.6562V6.09375C8.03571 5.83594 7.79464 5.625 7.5 5.625ZM10.7143 5.625C10.4196 5.625 10.1786 5.83594 10.1786 6.09375V12.6562C10.1786 12.9141 10.4196 13.125 10.7143 13.125C11.0089 13.125 11.25 12.9141 11.25 12.6562V6.09375C11.25 5.83594 11.0089 5.625 10.7143 5.625Z" fill="#C1C3CE"/>
</g>
<defs>
<clipPath id="clip0_189_106">
<rect width="15" height="15" fill="white"/>
</clipPath>
</defs>
</svg>
